<svg xmlns="http://www.w3.org/2000/svg" xmlns:xlink="http://www.w3.org/1999/xlink" width="25" height="25" viewBox="0 0 25 25">
  <defs>
    <style>
      .cls-1 {
        fill-rule: evenodd;
        filter: url(#filter);
      }
    </style>
    <filter id="filter" x="0" y="0" width="24" height="24" filterUnits="userSpaceOnUse">
      <feFlood result="flood" flood-color="#fff"/>
      <feComposite result="composite" operator="in" in2="SourceGraphic"/>
      <feBlend result="blend" in2="SourceGraphic"/>
    </filter>
  </defs>
  <path id="icon-search" class="cls-1" d="M23.762,22.682l-6.194-6.095a9.8,9.8,0,0,0,2.618-6.658A10.014,10.014,0,0,0,10.093,0,10.012,10.012,0,0,0,0,9.929a10.013,10.013,0,0,0,10.093,9.934,10.156,10.156,0,0,0,6.353-2.218l6.217,6.12a0.785,0.785,0,0,0,1.1,0A0.758,0.758,0,0,0,23.762,22.682ZM10.093,18.334a8.473,8.473,0,0,1-8.54-8.405,8.473,8.473,0,0,1,8.54-8.4,8.473,8.473,0,0,1,8.54,8.4A8.473,8.473,0,0,1,10.093,18.334Z" transform="translate(0.5 0.5)"/>
</svg>
